<svg xmlns="http://www.w3.org/2000/svg" width="600" height="600" viewBox="0 0 600 600">
  <defs>
    <style>
      .cls-1 {
        fill: none;
        stroke: #fff;
        stroke-width: 2px;
      }

      .cls-2 {
        fill: #fff;
        fill-rule: evenodd;
      }
    </style>
  </defs>
  <circle class="cls-1" cx="300" cy="300" r="297"/>
  <path id="GITCLUB" class="cls-2" d="M129.318,256.674a7.974,7.974,0,0,1-.983,4.084A2.386,2.386,0,0,1,126.4,261.8a15.759,15.759,0,0,1-4.472-1.252q-2.982-1.072-5.158-1.818a40.558,40.558,0,0,0-4.144-1.193,33.374,33.374,0,0,0-4.054-.656q-2.088-.207-4.89-0.208a44.4,44.4,0,0,0-17.083,3.16,37.18,37.18,0,0,0-13.625,9.838,46,46,0,0,0-8.884,14.191,47.636,47.636,0,0,0-2.385,8.079,41.7,41.7,0,0,0-.835,8.259,40.133,40.133,0,0,0,9.123,26q12.164,15.025,35.6,15.025a66.811,66.811,0,0,0,7.662-.417,54.437,54.437,0,0,0,7.036-1.282,52.79,52.79,0,0,0,6.768-2.206,71.01,71.01,0,0,0,6.916-3.25V309.323a35.618,35.618,0,0,1,.418-6.081,8.553,8.553,0,0,1,1.341-3.578,4.557,4.557,0,0,1,2.355-1.7,11.7,11.7,0,0,1,3.459-.448h1.49v-2.265h-31.3v2.265q4.889,0,6.8,1.014a9.658,9.658,0,0,1,1.7,1.073,4.069,4.069,0,0,1,1.193,1.73,12.855,12.855,0,0,1,.686,3.011,41.511,41.511,0,0,1,.238,4.978V332.7a35.765,35.765,0,0,1-8.079,3.339,32.541,32.541,0,0,1-8.616,1.133,26.484,26.484,0,0,1-8.378-1.312,28.075,28.075,0,0,1-7.364-3.7,30.058,30.058,0,0,1-6.142-5.784,36.7,36.7,0,0,1-4.71-7.632,49.107,49.107,0,0,1-4.472-21.107q0-14.25,6.738-24.566,8.049-12.222,23.492-12.224,11.27,0,18.544,6.977,5.067,4.89,8.169,14.37h2.086l-2.086-25.52h-2.207Zm44.1,80.5a10.965,10.965,0,0,1-5.426-1.431,7.213,7.213,0,0,1-1.729-1.282,4.3,4.3,0,0,1-.984-1.819,14.107,14.107,0,0,1-.447-2.922q-0.12-1.788-.12-4.65V272.832q0-7.334,1.491-9.182,2.205-2.921,7.215-2.922h2.921v-2.206H141.7v2.206h2.862a11.3,11.3,0,0,1,5.485,1.431,7.137,7.137,0,0,1,1.7,1.252,4.276,4.276,0,0,1,.954,1.819,14.823,14.823,0,0,1,.447,2.951q0.118,1.79.119,4.651v52.233q0,7.334-1.431,9.182-2.207,2.922-7.274,2.922H141.7v2.206h34.642v-2.206h-2.921Zm3.494-78.647v18.961h2.266a27.4,27.4,0,0,1,1.788-7.1,10.585,10.585,0,0,1,3.1-4.234,10.8,10.8,0,0,1,4.651-2.027,33.877,33.877,0,0,1,6.439-.537h9.72v61.773q0,6.857-1.312,8.7-2.147,3.1-7.275,3.1h-2.862v2.206h34.285v-2.206h-2.8q-4.772,0-6.976-2.5-1.611-1.846-1.61-9.3V263.59h11.388a21.439,21.439,0,0,1,5.963.746,10.8,10.8,0,0,1,4.353,2.385,11.933,11.933,0,0,1,2.891,4.293,25.081,25.081,0,0,1,1.581,6.469h1.371V258.522h-66.96Zm136.221-1.848a9.509,9.509,0,0,1-1.818,4.024,3.95,3.95,0,0,1-3.19,1.58,8.827,8.827,0,0,1-3.578-1.311,38.085,38.085,0,0,0-17.291-4.293,41.175,41.175,0,0,0-9.66,1.133,40.445,40.445,0,0,0-8.973,3.309,39.227,39.227,0,0,0-7.931,5.366,42.325,42.325,0,0,0-12.611,19.736,49.86,49.86,0,0,0-1.967,13.983q0,15.025,8.228,26.116,10.971,14.907,31.125,14.906A41.863,41.863,0,0,0,295.812,340a31.388,31.388,0,0,0,8.914-3.786,35.276,35.276,0,0,0,7.632-6.5,53.4,53.4,0,0,0,6.559-9.3l-1.848-1.193q-3.341,4.234-6.112,7.394a32.533,32.533,0,0,1-5.754,5.247,21.52,21.52,0,0,1-6.618,3.1,32.459,32.459,0,0,1-8.646,1.013,33.318,33.318,0,0,1-8.5-1.073,28.523,28.523,0,0,1-7.542-3.16,26.014,26.014,0,0,1-6.172-5.188,27.527,27.527,0,0,1-4.5-7.214,47.5,47.5,0,0,1-3.517-19.021,70.687,70.687,0,0,1,1.073-12.909,45.67,45.67,0,0,1,3.1-10.286q3.7-8.228,9.958-12.193a26.282,26.282,0,0,1,14.37-3.965,29.347,29.347,0,0,1,8.944,1.311,22.45,22.45,0,0,1,7.513,4.115,27.825,27.825,0,0,1,6.052,7.214,46.512,46.512,0,0,1,4.5,10.554h1.849l-1.849-27.487h-2.087Zm70.783,66.84a30.318,30.318,0,0,1-3.1,4.562,16.2,16.2,0,0,1-3.25,3.011,15.082,15.082,0,0,1-3.577,1.789q-3.818,1.373-13.058,1.371h-5.9q-7.871,0-9.3-.6a4.081,4.081,0,0,1-1.55-.984,4.537,4.537,0,0,1-.954-1.61,10.325,10.325,0,0,1-.507-2.474q-0.15-1.491-.149-3.578V274.2q0-7.275.954-9.123a8.151,8.151,0,0,1,1.341-1.759,6.913,6.913,0,0,1,2.207-1.4,14.242,14.242,0,0,1,3.577-.895,41.476,41.476,0,0,1,5.456-.3v-2.206H319.49v2.206h3.041q4.59,0,6.916,2.624,1.669,1.848,1.67,9.48v52.173q0,6.976-1.252,8.825-2.268,3.339-7.334,3.339H319.49v2.206H382.1l6.917-21.942-1.968-.418A62.916,62.916,0,0,1,383.916,323.514Zm62.911-62.786q4.59,0,6.917,2.624,1.668,1.848,1.669,9.48v32.735q0,12.879-2.325,18.305a15.666,15.666,0,0,1-3.339,4.919,22.166,22.166,0,0,1-5.218,3.876,28.6,28.6,0,0,1-6.618,2.564,30.243,30.243,0,0,1-7.543.924,23.077,23.077,0,0,1-9.987-1.878,16.14,16.14,0,0,1-6.231-5.1,18.779,18.779,0,0,1-2.415-4.442,31.262,31.262,0,0,1-1.461-5.128,42.261,42.261,0,0,1-.715-5.635q-0.18-2.921-.179-5.9V272.832a43.971,43.971,0,0,1,.268-5.128,9.935,9.935,0,0,1,1.163-3.816,5.726,5.726,0,0,1,2.623-2.355,11.007,11.007,0,0,1,4.592-.805h3.1v-2.206H386.187v2.206h3.041a14.135,14.135,0,0,1,3.906.477,5.377,5.377,0,0,1,2.713,1.789,8.627,8.627,0,0,1,1.58,3.7,30.512,30.512,0,0,1,.507,6.141v31.6q0,5.962.178,10.643a35.89,35.89,0,0,0,1.282,8.527,21.894,21.894,0,0,0,3.459,7.036,25.866,25.866,0,0,0,6.708,6.052q6.915,4.59,20.094,4.591a46.616,46.616,0,0,0,9.391-.924,31.254,31.254,0,0,0,8.258-2.892,24.541,24.541,0,0,0,6.618-5.039,21.122,21.122,0,0,0,4.413-7.423q2.444-6.8,2.444-18.9V273.309q0-6.677,1.252-8.586a8.213,8.213,0,0,1,7.335-4h3.04v-2.206h-28.62v2.206h3.041Zm88.1,30.26a17.368,17.368,0,0,0,3.7-10.881,19.024,19.024,0,0,0-1.192-6.708,18.487,18.487,0,0,0-3.518-5.814,22.724,22.724,0,0,0-5.754-4.591,29.754,29.754,0,0,0-7.9-3.041,69.007,69.007,0,0,0-15.681-1.431H469.64v2.206h3.041q4.59,0,6.916,2.624,1.73,2.028,1.729,9.48v52.233q0,6.8-1.371,8.884-2.266,3.219-7.274,3.22H469.64v2.206H507.8q13.655,0,20.273-2.5a23.043,23.043,0,0,0,5.993-3.429,23.381,23.381,0,0,0,4.5-4.71,20.911,20.911,0,0,0,2.833-5.546,18.644,18.644,0,0,0,.983-5.932,19.8,19.8,0,0,0-1.013-6.351,16.072,16.072,0,0,0-3.22-5.515,19.921,19.921,0,0,0-5.694-4.353,32.991,32.991,0,0,0-8.437-2.921Q531.233,295.788,534.93,290.988Zm-42.155-27.159a39.678,39.678,0,0,1,10.732-1.312,31.758,31.758,0,0,1,9.779,1.371,21.8,21.8,0,0,1,7.1,3.7,15.3,15.3,0,0,1,5.783,12.045,16.653,16.653,0,0,1-.6,4.472,15.643,15.643,0,0,1-1.729,4,14.58,14.58,0,0,1-2.832,3.339,14.736,14.736,0,0,1-3.906,2.444q-4.293,1.85-13.058,1.849a63.628,63.628,0,0,1-11.269-.835V263.829Zm0,36.55a32.25,32.25,0,0,1,4.2-.417q2.594-.119,6.35-0.119a38.874,38.874,0,0,1,11.18,1.431,23.531,23.531,0,0,1,7.871,3.9,15.579,15.579,0,0,1,4.651,5.844,17.415,17.415,0,0,1,1.52,7.244,15.683,15.683,0,0,1-1.4,6.589,14.87,14.87,0,0,1-4.2,5.366A20.663,20.663,0,0,1,516,333.83a31.73,31.73,0,0,1-9.57,1.311,59.569,59.569,0,0,1-13.654-1.609V300.379Z"/>
</svg>
